#!OML:ASF I:\Actors\actors\Patient Classification 2\Patient 1\Session 1\actor1.ASF
:FULLY-SPECIFIED
:DEGREES
137
root -0.517289 18.8362 5.23265 19.7833 0.307497 -1.67231
lowerback 24.8634 0.194634 1.32456
upperback 4.57657 0.661405 0.730689
thorax -8.76201 0.283507 -0.162593
lowerneck -6.90176 -2.5702 -0.82678
upperneck -1.36001 -3.39977 2.33407
head 0.784449 -1.67197 0.764026
rclavicle -4.96962e-015 -9.34288e-015
rhumerus 0.812094 29.9626 -71.5497
rradius 40.785
rwrist 12.2796
rhand -30.2714 -36.0686
rfingers 7.12502
rthumb -3.57952 -66.0183
lclavicle -4.96962e-015 -9.34288e-015
lhumerus 6.7298 -21.2176 77.8257
lradius 37.1402
lwrist -20.27
lhand -24.4706 -49.9796
lfingers 7.12502
lthumb 2.02284 -20.0095
rfemur -18.5014 1.20383 14.3168
rtibia 6.47835
rfoot -18.0444 -16.5947
rtoes -5.19129
lfemur -32.2689 0.554455 -12.1712
ltibia 28.6443
lfoot -16.3459 7.16288
ltoes -55.9424
138
root -0.515393 18.8384 5.2435 19.8455 0.317751 -1.69001
lowerback 24.8331 0.206655 1.33296
upperback 4.58547 0.680945 0.75707
thorax -8.73642 0.292995 -0.144267
lowerneck -6.83227 -2.69845 -0.884328
upperneck -1.44513 -3.56703 2.43718
head 0.752243 -1.75541 0.802166
rclavicle 8.94531e-016 -2.78299e-015
rhumerus 0.899104 29.9525 -71.471
rradius 40.7692
rwrist 12.3271
rhand -30.3323 -36.5184
rfingers 7.12502
rthumb -3.63837 -66.4671
lclavicle 8.94531e-016 -2.78299e-015
lhumerus 6.79844 -21.3674 77.7905
lradius 37.2216
lwrist -20.0544
lhand -24.4344 -49.921
lfingers 7.12502
lthumb 2.05783 -19.9512
rfemur -18.5719 1.19611 14.3414
rtibia 6.56528
rfoot -18.0429 -16.6133
rtoes -5.41508
lfemur -32.2908 0.518477 -12.1456
ltibia 28.6249
lfoot -16.347 7.19129
ltoes -55.8364
139
root -0.512628 18.8402 5.25436 19.9227 0.349487 -1.64162
lowerback 24.7944 0.191924 1.31632
upperback 4.5849 0.657789 0.762469
thorax -8.71758 0.282834 -0.121276
lowerneck -6.79041 -2.80784 -1.03135
upperneck -1.54052 -3.70272 2.61223
head 0.725104 -1.82169 0.878467
rclavicle 7.45443e-015 2.5842e-015
rhumerus 1.05098 29.9643 -71.3839
rradius 40.7175
rwrist 12.441
rhand -30.5379 -37.5582
rfingers 7.12502
rthumb -3.83686 -67.5034
lclavicle 7.45443e-015 2.5842e-015
lhumerus 7.07829 -21.6071 77.6127
lradius 37.1546
lwrist -19.7223
lhand -24.4953 -49.9387
lfingers 7.12502
lthumb 1.999 -19.9683
rfemur -18.6425 1.14138 14.3023
rtibia 6.6391
rfoot -18.0722 -16.6271
rtoes -5.67074
lfemur -32.3365 0.479431 -12.1966
ltibia 28.5991
lfoot -16.3477 7.1921
ltoes -55.7682
140
root -0.509156 18.8417 5.26372 19.9779 0.39257 -1.54748
lowerback 24.8497 0.158765 1.27124
upperback 4.56032 0.604595 0.75466
thorax -8.77459 0.25862 -0.0875786
lowerneck -6.84443 -2.89582 -1.14586
upperneck -1.55732 -3.81288 2.76697
head 0.737622 -1.87434 0.942265
rclavicle -5.36719e-015 -4.77083e-015
rhumerus 1.13479 30.0186 -71.3487
rradius 40.6931
rwrist 12.4794
rhand -30.6379 -37.9752
rfingers 7.12502
rthumb -3.93352 -67.9187
lclavicle -5.36719e-015 -4.77083e-015
lhumerus 7.19085 -21.6458 77.5595
lradius 37.147
lwrist -19.621
lhand -24.5011 -49.935
lfingers 7.12502
lthumb 1.99338 -19.9646
rfemur -18.6833 1.05908 14.2148
rtibia 6.69243
rfoot -18.0842 -16.6341
rtoes -5.8986
lfemur -32.371 0.412881 -12.3011
ltibia 28.5722
lfoot -16.3454 7.21386
ltoes -55.8189
141
root -0.50629 18.8429 5.27197 20.0029 0.441343 -1.50457
lowerback 24.9477 0.123211 1.27427
upperback 4.52724 0.562519 0.757352
thorax -8.86263 0.238248 -0.0734714
lowerneck -6.84425 -2.96942 -1.16808
upperneck -1.58042 -3.91 2.83452
head 0.734538 -1.92235 0.964433
rclavicle 5.96354e-016 5.66536e-015
rhumerus 1.10734 30.0867 -71.3547
rradius 40.7781
rwrist 12.4112
rhand -30.617 -37.7463
rfingers 7.12502
rthumb -3.91333 -67.6902
lclavicle 5.96354e-016 5.66536e-015
lhumerus 7.17316 -21.5843 77.6008
lradius 37.1996
lwrist -19.6612
lhand -24.4456 -49.8768
lfingers 7.12502
lthumb 2.04705 -19.9069
rfemur -18.6805 0.993375 14.1823
rtibia 6.70576
rfoot -18.077 -16.6321
rtoes -6.03817
lfemur -32.3748 0.379474 -12.3564
ltibia 28.5509
lfoot -16.3387 7.22217
ltoes -55.8892
142
root -0.504664 18.8439 5.28036 20.0283 0.486936 -1.51786
lowerback 25.0067 0.103836 1.31198
upperback 4.51274 0.55126 0.781349
thorax -8.90936 0.231936 -0.0652404
lowerneck -6.80784 -3.01847 -1.18253
upperneck -1.66987 -3.97334 2.85025
head 0.7023 -1.9549 0.970961
rclavicle 4.47266e-015 -7.85199e-015
rhumerus 1.09422 30.1498 -71.3073
rradius 40.8813
rwrist 12.3969
rhand -30.6327 -37.602
rfingers 7.12502
rthumb -3.9285 -67.5455
lclavicle 4.47266e-015 -7.85199e-015
lhumerus 7.05944 -21.551 77.6741
lradius 37.3348
lwrist -19.6959
lhand -24.453 -49.8801
lfingers 7.12502
lthumb 2.03988 -19.9101
rfemur -18.6407 0.952865 14.2103
rtibia 6.64281
rfoot -18.0852 -16.6108
rtoes -5.84227
lfemur -32.3815 0.387378 -12.3505
ltibia 28.5462
lfoot -16.3298 7.20192
ltoes -55.9439
143
root -0.50421 18.8444 5.28812 20.0783 0.523373 -1.54611
lowerback 25.0247 0.104541 1.34457
upperback 4.51373 0.564595 0.816624
thorax -8.91753 0.237712 -0.0492606
lowerneck -6.90717 -3.04171 -1.21089
upperneck -1.71454 -4.00111 2.85486
head 0.706408 -1.96835 0.975339
rclavicle 2.28602e-015 -3.47873e-015
rhumerus 1.17183 30.1805 -71.2224
rradius 40.9081
rwrist 12.4617
rhand -30.6398 -37.6885
rfingers 7.12502
rthumb -3.93531 -67.6319
lclavicle 2.28602e-015 -3.47873e-015
lhumerus 6.79667 -21.5144 77.7835
lradius 37.5996
lwrist -19.7639
lhand -24.4877 -49.9086
lfingers 7.12502
lthumb 2.00636 -19.9383
rfemur -18.5938 0.927163 14.2589
rtibia 6.50882
rfoot -18.1044 -16.6016
rtoes -5.41314
lfemur -32.4256 0.44324 -12.336
ltibia 28.5582
lfoot -16.3149 7.15473
ltoes -55.9816
144
root -0.503212 18.8442 5.29564 20.1381 0.552026 -1.59357
lowerback 24.94 0.110911 1.4334
upperback 4.57632 0.595639 0.843924
thorax -8.80282 0.251105 -0.0796158
lowerneck -7.14831 -3.08871 -1.21636
upperneck -1.70687 -4.06211 2.79951
head 0.749439 -1.99801 0.953906
rclavicle -3.18055e-015 -4.17448e-015
rhumerus 1.37943 30.1422 -71.0918
rradius 40.8992
rwrist 12.4317
rhand -30.6617 -37.7657
rfingers 7.12502
rthumb -3.95649 -67.7087
lclavicle -3.18055e-015 -4.17448e-015
lhumerus 6.74149 -21.5614 77.7876
lradius 37.8045
lwrist -19.7567
lhand -24.4792 -49.8172
lfingers 7.12502
lthumb 2.01452 -19.847
rfemur -18.5703 0.914097 14.3219
rtibia 6.39305
rfoot -18.1061 -16.6055
rtoes -5.10129
lfemur -32.4785 0.531155 -12.3123
ltibia 28.5708
lfoot -16.3024 7.08962
ltoes -55.9836
145
root -0.501807 18.8438 5.30315 20.1796 0.572943 -1.62093
lowerback 24.9073 0.109829 1.51937
upperback 4.60456 0.615437 0.847345
thorax -8.75321 0.258561 -0.131308
lowerneck -7.30171 -3.13886 -1.15838
upperneck -1.7155 -4.13209 2.70036
head 0.769862 -2.03382 0.909047
rclavicle 8.94531e-016 -3.47873e-015
rhumerus 1.48996 30.1604 -71.0045
rradius 40.9228
rwrist 12.2797
rhand -30.6877 -37.7552
rfingers 7.12502
rthumb -3.98153 -67.6978
lclavicle 8.94531e-016 -3.47873e-015
lhumerus 6.79415 -21.5916 77.7926
lradius 37.8636
lwrist -19.7454
lhand -24.4934 -49.6143
lfingers 7.12502
lthumb 2.00083 -19.644
rfemur -18.5662 0.900829 14.3569
rtibia 6.35406
rfoot -18.1093 -16.5951
rtoes -4.85222
lfemur -32.5048 0.566175 -12.2974
ltibia 28.5711
lfoot -16.3147 7.05892
ltoes -56.0137
146
root -0.501131 18.8438 5.30933 20.2177 0.611712 -1.57462
lowerback 24.9647 0.100006 1.5214
upperback 4.56887 0.604167 0.835029
thorax -8.82272 0.252518 -0.142784
lowerneck -7.33871 -3.15461 -1.14208
upperneck -1.765 -4.15351 2.70823
head 0.760729 -2.04469 0.907902
rclavicle 1.2921e-015 -1.68967e-015
rhumerus 1.47531 30.1666 -71.0306
rradius 40.9269
rwrist 12.2076
rhand -30.7007 -37.72
rfingers 7.12502
rthumb -3.99408 -67.6623
lclavicle 1.2921e-015 -1.68967e-015
lhumerus 6.78885 -21.5659 77.8535
lradius 37.8502
lwrist -19.7749
lhand -24.5054 -49.467
lfingers 7.12502
lthumb 1.98924 -19.4966
rfemur -18.5857 0.844692 14.3255
rtibia 6.37222
rfoot -18.1204 -16.5868
rtoes -4.73416
lfemur -32.5314 0.495198 -12.3281
ltibia 28.558
lfoot -16.3566 7.06908
ltoes -56.0106
